<mxfile host="app.diagrams.net" agent="Mozilla/5.0 (Windows NT 10.0; Win64; x64) AppleWebKit/537.36 (KHTML, like Gecko) Chrome/131.0.0.0 Safari/537.36" version="25.0.1">
  <diagram name="Page-1" id="SuEGLtYsEctfTkot8OOa">
    <mxGraphModel dx="913" dy="454" grid="1" gridSize="10" guides="1" tooltips="1" connect="1" arrows="1" fold="1" page="1" pageScale="1" pageWidth="850" pageHeight="1100" math="0" shadow="0">
      <root>
        <mxCell id="0" />
        <mxCell id="1" parent="0" />
        <mxCell id="b5ivoGg5rPFgXmSaeFe9-2" value="&lt;b&gt;Data Sources&lt;/b&gt;" style="rounded=0;whiteSpace=wrap;html=1;" vertex="1" parent="1">
          <mxGeometry x="90" y="90" width="220" height="70" as="geometry" />
        </mxCell>
        <mxCell id="b5ivoGg5rPFgXmSaeFe9-3" value="&lt;b&gt;Wellness Team&lt;/b&gt;" style="rounded=1;whiteSpace=wrap;html=1;" vertex="1" parent="1">
          <mxGeometry x="670" y="90" width="120" height="60" as="geometry" />
        </mxCell>
        <mxCell id="b5ivoGg5rPFgXmSaeFe9-4" value="&lt;b&gt;User&lt;/b&gt;" style="image;sketch=0;aspect=fixed;html=1;points=[];align=center;fontSize=12;image=img/lib/mscae/Person.svg;" vertex="1" parent="1">
          <mxGeometry x="450" y="70" width="59.2" height="80" as="geometry" />
        </mxCell>
        <mxCell id="b5ivoGg5rPFgXmSaeFe9-7" value="&lt;b&gt;Wellness Digital Twin&lt;/b&gt;" style="rounded=0;whiteSpace=wrap;html=1;align=center;verticalAlign=top;" vertex="1" parent="1">
          <mxGeometry x="230" y="240" width="500" height="130" as="geometry" />
        </mxCell>
      </root>
    </mxGraphModel>
  </diagram>
</mxfile>
